<svg width="68" height="31" viewBox="0 0 68 31" fill="none" xmlns="http://www.w3.org/2000/svg">
<path d="M0 11C0 4.92487 4.92487 0 11 0H57C63.0751 0 68 4.92487 68 11V20C68 26.0751 63.0751 31 57 31H11C4.92487 31 0 26.0751 0 20V11Z" fill="#E22F2F"/>
<path d="M37.125 15.325V16.9875H38.7875V15.325H37.125ZM42.025 10.05V17.925H43.6875V10.05H42.025ZM43.1 13.35V14.7125H45.1375V13.35H43.1ZM34.55 17.7C36.575 17.6875 39.225 17.6625 41.6375 17.25L41.5125 16.1125C39.175 16.4 36.4375 16.4125 34.3625 16.4125L34.55 17.7ZM35.8375 18.3875V19.6625H42.025V21.6125H43.6875V18.3875H35.8375ZM34.6625 10.8875V12.075H41.225V10.8875H34.6625ZM37.95 12.35C36.2375 12.35 35.125 13.0125 35.125 14.075C35.125 15.1375 36.2375 15.8 37.95 15.8C39.65 15.8 40.7625 15.1375 40.7625 14.075C40.7625 13.0125 39.65 12.35 37.95 12.35ZM37.95 13.4375C38.725 13.4375 39.1875 13.6375 39.1875 14.075C39.1875 14.4875 38.725 14.7125 37.95 14.7125C37.1625 14.7125 36.7 14.4875 36.7 14.075C36.7 13.6375 37.1625 13.4375 37.95 13.4375ZM37.125 9.95V11.425H38.7875V9.95H37.125Z" fill="white"/>
<path d="M53.949 10.05V18.3625H55.624V10.05H53.949ZM47.9115 20.0875V21.4125H55.9115V20.0875H47.9115ZM47.9115 17.525V20.625H49.574V17.525H47.9115ZM49.324 10.775C47.549 10.775 46.174 12 46.174 13.7125C46.174 15.4125 47.549 16.65 49.324 16.65C51.099 16.65 52.4615 15.4125 52.4615 13.7125C52.4615 12 51.099 10.775 49.324 10.775ZM49.324 12.2125C50.174 12.2125 50.8365 12.7625 50.8365 13.7125C50.8365 14.65 50.174 15.2 49.324 15.2C48.4615 15.2 47.799 14.65 47.799 13.7125C47.799 12.7625 48.4615 12.2125 49.324 12.2125Z" fill="white"/>
<path d="M29 21.5V23.5H11V19.257L20.9 9.357L25.142 13.601L17.242 21.5H29ZM22.313 7.944L24.435 5.822C24.6225 5.63453 24.8768 5.52921 25.142 5.52921C25.4072 5.52921 25.6615 5.63453 25.849 5.822L28.678 8.651C28.8655 8.83853 28.9708 9.09284 28.9708 9.358C28.9708 9.62316 28.8655 9.87747 28.678 10.065L26.556 12.186L22.314 7.944H22.313Z" fill="white"/>
</svg>
