<svg width="68" height="31" viewBox="0 0 68 31" fill="none" xmlns="http://www.w3.org/2000/svg">
<path d="M0 11C0 4.92487 4.92487 0 11 0H57C63.0751 0 68 4.92487 68 11V20C68 26.0751 63.0751 31 57 31H11C4.92487 31 0 26.0751 0 20V11Z" fill="#E22F2F"/>
<path d="M37.4875 12.2375V12.375C37.4875 13.375 36.7 14.325 34.9125 14.65L35.575 15.9375C37.8 15.4875 38.825 14.0875 38.825 12.375V12.2375H37.4875ZM37.825 12.2375V12.375C37.825 14.0125 38.85 15.35 41.0375 15.7625L41.6875 14.4875C39.9375 14.175 39.1625 13.3125 39.1625 12.375V12.2375H37.825ZM35.225 11.1875V12.4625H41.4125V11.1875H35.225ZM37.4875 10.0625V12.1H39.1625V10.0625H37.4875ZM37.475 16.6125V21.2625H39.1375V16.6125H37.475ZM42.5375 10.0375V21.6125H44.1875V10.0375H42.5375ZM34.7375 17.775C36.8 17.775 39.4875 17.7375 41.9875 17.2875L41.875 16.0875C39.45 16.4125 36.6375 16.425 34.5375 16.425L34.7375 17.775Z" fill="white"/>
<path d="M46.0115 18.9V20.2625H56.4865V18.9H46.0115ZM50.3615 16.325V19.2625H52.0115V16.325H50.3615ZM50.299 10.675V11.5125C50.299 13.1125 48.8865 14.8875 46.249 15.3125L46.9365 16.7C49.9615 16.15 51.749 13.975 51.749 11.5125V10.675H50.299ZM50.624 10.675V11.5125C50.624 14.0125 52.4115 16.1375 55.449 16.7L56.1365 15.3125C53.4865 14.8875 52.074 13.15 52.074 11.5125V10.675H50.624Z" fill="white"/>
<path d="M29 21.5V23.5H11V19.257L20.9 9.357L25.142 13.601L17.242 21.5H29ZM22.313 7.944L24.435 5.822C24.6225 5.63453 24.8768 5.52921 25.142 5.52921C25.4072 5.52921 25.6615 5.63453 25.849 5.822L28.678 8.651C28.8655 8.83853 28.9708 9.09284 28.9708 9.358C28.9708 9.62316 28.8655 9.87747 28.678 10.065L26.556 12.186L22.314 7.944H22.313Z" fill="white"/>
</svg>
