<svg width="136" height="62" viewBox="0 0 136 62" fill="none" xmlns="http://www.w3.org/2000/svg">
<path d="M0 22C0 9.84974 9.84974 0 22 0H114C126.15 0 136 9.84974 136 22V40C136 52.1503 126.15 62 114 62H22C9.84973 62 0 52.1503 0 40V22Z" fill="#E22F2F"/>
<path d="M89.15 28.3C83.925 27.575 81.275 24.575 81.275 21.9V20.8H77.75V21.9C77.75 24.6 75.125 27.575 69.875 28.3L71.125 30.95C75.15 30.35 78.05 28.475 79.525 26C81 28.475 83.875 30.35 87.9 30.95L89.15 28.3ZM89.9 32.65H69.1V35.325H77.775V43.175H81.075V35.325H89.9V32.65Z" fill="white"/>
<path d="M104.573 25.675V28.35H108.023V33.825H111.323V20.125H108.023V25.675H104.573ZM105.948 30.625C102.448 29.475 100.848 26.775 100.748 24.15H105.223V21.5H92.848V24.15H97.373C97.273 27.025 95.598 29.95 91.948 31.225L93.623 33.825C96.298 32.925 98.123 31.05 99.123 28.725C100.123 30.75 101.848 32.375 104.348 33.2L105.948 30.625ZM103.548 40.675C100.523 40.675 98.948 40.05 98.948 38.75C98.948 37.45 100.523 36.825 103.548 36.825C106.548 36.825 108.123 37.45 108.123 38.75C108.123 40.05 106.548 40.675 103.548 40.675ZM103.548 34.325C98.648 34.325 95.648 35.95 95.648 38.75C95.648 41.55 98.648 43.175 103.548 43.175C108.423 43.175 111.423 41.55 111.423 38.75C111.423 35.95 108.423 34.325 103.548 34.325Z" fill="white"/>
<path d="M58 43V47H22V38.514L41.8 18.714L50.284 27.202L34.484 43H58ZM44.626 15.888L48.87 11.644C49.2451 11.2691 49.7537 11.0584 50.284 11.0584C50.8143 11.0584 51.3229 11.2691 51.698 11.644L57.356 17.302C57.7309 17.6771 57.9416 18.1857 57.9416 18.716C57.9416 19.2463 57.7309 19.7549 57.356 20.13L53.112 24.372L44.628 15.888H44.626Z" fill="white"/>
</svg>
